<?xml version="1.0" standalone="no"?>
<!DOCTYPE svg PUBLIC "-//W3C//DTD SVG 20010904//EN"
 "http://www.w3.org/TR/2001/REC-SVG-20010904/DTD/svg10.dtd">
<svg version="1.0" xmlns="http://www.w3.org/2000/svg"
 width="1380.000000pt" height="850.000000pt" viewBox="0 0 1380.000000 850.000000"
 preserveAspectRatio="xMidYMid meet">

<g transform="translate(0.000000,850.000000) scale(0.100000,-0.100000)"
fill="#000000" stroke="none">
<path d="M4325 6911 c-161 -26 -281 -86 -385 -191 -87 -88 -136 -173 -176
-305 -22 -75 -27 -115 -32 -243 -3 -97 0 -182 8 -229 45 -281 200 -477 437
-554 96 -31 362 -39 449 -14 63 18 131 53 178 92 40 33 105 112 121 148 12 27
13 17 14 -107 l1 -138 105 0 105 0 0 300 c0 197 -4 307 -11 323 -13 30 -205
192 -243 207 -16 6 -134 10 -292 10 l-264 0 0 -85 0 -85 283 0 c222 0 287 -3
302 -14 16 -11 17 -22 12 -77 -18 -187 -132 -342 -294 -401 -46 -17 -81 -22
-173 -22 -186 0 -293 37 -391 134 -121 119 -178 337 -150 570 40 323 208 500
491 517 153 9 275 -32 366 -122 56 -56 99 -138 116 -220 l11 -55 98 0 c55 0
99 4 99 8 0 5 -9 43 -19 84 -31 120 -83 213 -165 293 -81 80 -158 124 -266
155 -84 23 -255 34 -335 21z"/>
<path d="M962 6888 c3 -7 119 -352 258 -765 l253 -753 182 0 183 0 87 258
c165 489 425 1265 425 1269 0 2 -46 2 -101 1 l-102 -3 -208 -630 c-115 -346
-214 -647 -219 -667 -11 -38 -11 -38 -63 -38 l-53 0 -220 668 -220 667 -103 3
c-81 2 -102 0 -99 -10z"/>
<path d="M2530 6135 l0 -765 525 0 525 0 0 95 0 95 -430 0 -430 0 2 246 3 246
405 2 405 1 3 93 3 92 -411 0 -410 0 0 235 0 235 430 0 430 0 0 95 0 95 -525
0 -525 0 0 -765z"/>
<path d="M5825 6866 c-14 -34 -525 -1487 -525 -1493 0 -2 46 -2 102 -1 l101 3
58 165 c33 91 71 198 85 238 l26 72 338 0 338 0 26 -72 c15 -40 53 -147 85
-238 l58 -165 101 -3 c56 -1 102 -1 102 2 0 2 -25 76 -56 163 -30 87 -147 421
-260 741 -112 321 -209 592 -215 603 -9 18 -23 19 -180 19 l-170 0 -14 -34z
m225 -159 c0 -2 52 -151 115 -331 63 -180 115 -329 115 -332 0 -2 -121 -4
-270 -4 -148 0 -270 2 -270 4 0 2 52 151 115 332 63 180 115 329 115 331 0 2
18 3 40 3 22 0 40 -2 40 -3z"/>
<path d="M6870 6135 l0 -765 115 0 115 0 0 295 0 295 295 0 c234 0 303 3 330
14 39 17 260 199 269 222 3 9 6 116 6 238 0 180 -3 226 -15 243 -22 32 -228
201 -259 213 -17 6 -183 10 -442 10 l-414 0 0 -765z m896 551 c13 -21 15 -58
12 -266 -3 -226 -4 -243 -22 -256 -16 -11 -79 -14 -338 -14 l-318 0 0 280 0
280 325 0 325 0 16 -24z"/>
<path d="M8210 6266 c0 -349 3 -642 6 -650 7 -19 222 -201 262 -222 22 -11 89
-14 350 -14 l322 0 0 95 0 95 -338 0 c-316 0 -340 1 -355 18 -15 17 -17 78
-17 665 l0 647 -115 0 -115 0 0 -634z"/>
<path d="M9330 6266 c0 -349 3 -642 6 -650 8 -22 239 -214 270 -227 38 -14
640 -12 667 3 34 18 247 199 257 219 6 11 10 264 10 653 l0 636 -115 0 -115 0
0 -649 c0 -577 -2 -651 -16 -665 -13 -14 -60 -16 -358 -16 -320 0 -344 1 -359
18 -15 17 -17 78 -17 665 l0 647 -115 0 -115 0 0 -634z"/>
<path d="M11015 6885 c-42 -19 -247 -195 -262 -225 -9 -17 -13 -74 -13 -170 0
-96 4 -153 13 -170 16 -31 221 -207 264 -226 26 -11 100 -14 361 -14 262 0
332 -3 347 -14 17 -12 19 -32 22 -235 3 -210 2 -222 -17 -241 -19 -19 -32 -20
-505 -20 l-485 0 0 -95 0 -95 473 1 c259 0 480 3 489 7 36 15 247 199 262 229
13 25 16 67 16 206 0 97 -4 187 -9 200 -10 25 -173 172 -245 221 l-39 26 -338
0 c-326 0 -340 1 -359 20 -19 19 -20 33 -20 200 0 167 1 181 20 200 19 19 33
20 445 20 l425 0 0 95 0 95 -407 0 c-324 -1 -414 -4 -438 -15z"/>
<path d="M9230 4810 c-719 -68 -1319 -316 -1734 -719 -280 -272 -435 -564
-477 -898 -14 -113 -7 -294 16 -403 140 -670 782 -1217 1685 -1434 684 -165
1452 -108 2080 156 467 196 851 515 1051 876 316 569 195 1223 -317 1712 -385
368 -945 612 -1594 695 -147 19 -571 28 -710 15z m270 -565 l0 -485 -72 0
c-288 0 -998 73 -998 102 0 5 22 55 50 111 151 308 364 535 625 665 106 52
247 90 343 91 l52 1 0 -485z m247 459 c290 -75 560 -296 744 -609 60 -102 121
-233 111 -239 -14 -8 -271 -46 -417 -61 -157 -16 -452 -35 -542 -35 l-53 0 0
486 0 486 53 -7 c28 -4 76 -14 104 -21z m-773 -40 c-246 -147 -460 -401 -595
-702 -20 -45 -39 -85 -41 -87 -7 -8 -342 79 -459 118 -57 19 -140 50 -183 68
-74 31 -77 33 -58 48 322 260 654 424 1063 525 128 32 278 63 318 65 8 1 -12
-15 -45 -35z m1211 5 c407 -80 810 -253 1110 -479 127 -96 126 -94 68 -120
-121 -54 -388 -137 -575 -178 l-87 -20 -65 132 c-145 292 -309 486 -541 639
-102 66 -109 64 90 26z m-2340 -754 c107 -36 302 -90 436 -119 l26 -6 -32
-112 c-40 -137 -72 -319 -81 -462 l-7 -106 -543 0 -544 0 0 29 c0 91 53 288
114 426 56 124 161 277 274 397 l63 67 82 -35 c45 -20 141 -55 212 -79z m3712
39 c222 -246 337 -490 378 -796 l6 -48 -544 0 -545 0 -7 83 c-15 192 -52 391
-96 525 -12 35 -19 65 -17 67 2 3 76 22 164 45 187 47 375 108 494 160 47 21
88 38 92 39 4 1 37 -33 75 -75z m-3027 -203 c242 -40 587 -71 800 -71 69 0
135 -3 148 -6 l22 -6 0 -279 0 -279 -612 2 -613 3 3 70 c4 89 27 255 47 342
26 116 68 243 79 243 6 0 63 -9 126 -19z m2120 -7 c46 -120 96 -370 107 -535
l6 -99 -587 0 -586 0 2 283 3 282 185 6 c102 4 244 12 315 19 143 13 487 59
494 66 2 2 15 4 28 4 16 0 27 -8 33 -26z m-2458 -845 c12 -208 49 -402 117
-600 l29 -86 -157 -38 c-137 -33 -379 -107 -524 -162 l-48 -18 -88 90 c-188
195 -311 396 -375 619 -31 107 -46 192 -46 269 l0 57 543 -2 542 -3 7 -126z
m1308 -222 l0 -354 -207 -6 c-275 -9 -657 -46 -841 -83 -29 -6 -29 -6 -65 103
-44 133 -61 202 -81 318 -19 111 -40 341 -32 361 5 12 96 14 616 14 l610 0 0
-353z m1260 280 c0 -103 -26 -304 -55 -426 -27 -112 -81 -281 -94 -294 -4 -4
-53 -1 -107 8 -184 30 -431 54 -673 67 l-241 12 0 353 0 353 585 0 585 0 0
-73z m1176 -8 c-18 -219 -93 -427 -225 -623 -65 -98 -198 -254 -254 -299 -37
-28 -41 -30 -71 -18 -107 45 -366 126 -511 162 -93 22 -171 42 -172 43 -2 1
10 42 27 91 63 187 103 395 116 613 l7 112 545 0 545 0 -7 -81z m-2436 -1159
l0 -440 -32 0 c-113 0 -307 59 -427 129 -174 101 -317 238 -441 421 -54 81
-130 219 -130 238 0 16 379 65 620 81 69 4 189 9 268 10 l142 1 0 -440z m670
411 c237 -25 400 -51 400 -63 0 -6 -24 -53 -54 -107 -218 -386 -527 -624 -878
-675 l-48 -7 0 442 0 442 198 -6 c108 -4 280 -16 382 -26z m-1781 -103 c15
-44 124 -230 174 -297 114 -154 256 -288 407 -381 38 -24 55 -39 40 -36 -14 3
-54 10 -90 17 -370 62 -777 219 -1067 413 -137 91 -162 113 -143 126 45 30
582 185 657 189 6 1 16 -14 22 -31z m2476 -14 c193 -47 475 -139 475 -154 0
-7 -128 -99 -210 -152 -214 -135 -509 -258 -790 -328 -148 -37 -341 -72 -317
-56 263 162 457 374 596 649 51 100 23 95 246 41z"/>
<path d="M1090 4010 l0 -780 473 0 c439 0 475 2 512 19 45 21 258 200 275 230
14 27 14 1035 0 1062 -17 30 -230 209 -275 230 -37 17 -73 19 -512 19 l-473 0
0 -780z m1008 564 l22 -15 0 -549 0 -549 -22 -15 c-19 -14 -74 -16 -395 -16
l-373 0 0 580 0 580 373 0 c321 0 376 -2 395 -16z"/>
<path d="M3205 4771 c-45 -20 -258 -200 -275 -230 -6 -13 -10 -194 -10 -534 0
-499 1 -515 20 -540 36 -45 244 -214 279 -225 43 -15 710 -16 761 -2 45 12
280 208 297 247 17 40 17 1006 0 1046 -16 38 -253 235 -297 247 -20 6 -187 10
-385 10 -319 0 -354 -2 -390 -19z m820 -205 l24 -24 1 -525 c0 -551 -1 -570
-44 -581 -11 -3 -197 -6 -411 -6 -337 0 -394 2 -413 16 l-22 15 0 549 0 549
22 15 c19 14 76 16 421 16 l398 0 24 -24z"/>
<path d="M5155 4779 c-46 -13 -281 -214 -294 -251 -15 -43 -15 -993 0 -1036
14 -40 248 -238 298 -252 21 -6 186 -10 386 -10 410 0 377 -7 531 123 162 137
144 55 144 658 l0 518 -29 33 c-44 51 -217 191 -259 210 -33 16 -76 17 -392
17 -195 -1 -369 -5 -385 -10z m803 -205 l22 -15 0 -549 0 -549 -22 -15 c-19
-14 -76 -16 -421 -16 l-398 0 -25 25 -24 24 0 523 c0 288 3 533 6 545 3 11 15
25 27 31 14 7 164 11 417 11 343 1 399 -1 418 -15z"/>
<path d="M2510 3340 l0 -110 130 0 130 0 0 110 0 110 -130 0 -130 0 0 -110z"/>
<path d="M4440 3340 l0 -110 130 0 130 0 0 110 0 110 -130 0 -130 0 0 -110z"/>
<path d="M6360 3340 l0 -111 133 3 132 3 3 108 3 107 -136 0 -135 0 0 -110z"/>
<path d="M5280 2644 c-46 -20 -77 -50 -103 -99 -19 -35 -22 -56 -22 -165 0
-103 3 -131 19 -160 43 -81 100 -117 203 -126 78 -7 140 6 195 41 l36 24 6
-24 c5 -18 13 -25 31 -25 l26 0 -3 138 -3 137 -125 0 -125 0 -3 -32 -3 -33 92
0 92 0 -7 -32 c-15 -78 -79 -123 -176 -123 -135 0 -190 62 -190 215 0 140 45
200 161 216 83 11 140 -16 207 -100 7 -9 24 -16 39 -16 23 0 25 3 19 32 -8 43
-53 97 -102 125 -33 19 -54 23 -134 22 -62 0 -107 -5 -130 -15z"/>
<path d="M6170 2633 c-23 -20 -33 -40 -37 -71 -7 -50 18 -125 49 -146 20 -14
19 -15 -18 -34 -22 -11 -52 -34 -69 -52 -27 -28 -30 -38 -30 -95 0 -103 45
-136 196 -143 113 -5 187 9 219 43 l23 24 32 -25 c27 -20 43 -25 80 -22 l47 3
-66 53 -66 53 0 74 c0 78 -7 91 -45 81 -20 -5 -24 -13 -27 -51 l-3 -45 -63 51
-62 52 45 48 c43 46 45 51 45 109 0 55 -3 65 -29 91 -28 27 -34 29 -110 29
-74 0 -83 -2 -111 -27z m161 -43 c14 -8 19 -21 19 -52 0 -34 -6 -46 -36 -74
-19 -19 -39 -34 -44 -34 -4 0 -22 16 -39 35 -35 40 -41 87 -14 117 18 20 82
25 114 8z m29 -315 l90 -70 -26 -22 c-22 -21 -36 -23 -125 -23 -130 0 -169 19
-169 80 0 35 93 112 128 107 7 -1 53 -33 102 -72z"/>
<path d="M1080 2380 l0 -270 35 0 35 0 0 241 c0 223 1 240 17 237 14 -3 32
-54 82 -241 l64 -237 63 0 c60 0 64 2 70 25 65 260 123 450 137 453 15 3 17
-19 17 -237 l0 -241 35 0 35 0 0 270 0 270 -78 0 -78 0 -64 -240 c-36 -133
-69 -239 -75 -237 -8 3 -30 77 -120 415 l-17 62 -79 0 -79 0 0 -270z"/>
<path d="M1941 2628 c-5 -13 -45 -126 -89 -253 -44 -126 -84 -238 -87 -248 -7
-16 -3 -18 31 -15 38 3 38 3 67 86 l30 82 121 0 122 0 28 -85 c27 -85 27 -85
62 -85 19 0 34 4 34 9 0 5 -41 127 -91 270 l-91 261 -64 0 c-58 0 -65 -2 -73
-22z m126 -159 c23 -63 42 -117 43 -121 0 -5 -43 -8 -95 -8 -52 0 -95 4 -95 8
0 8 41 130 70 210 7 18 17 31 24 29 6 -2 30 -55 53 -118z"/>
<path d="M2350 2381 l0 -271 35 0 34 0 3 98 3 97 86 3 86 3 57 -101 57 -100
40 0 40 0 -28 48 c-15 26 -42 71 -60 101 l-32 54 32 17 c50 27 72 74 72 152 0
72 -14 102 -69 142 -25 19 -44 21 -192 24 l-164 3 0 -270z m318 182 c51 -38
50 -128 -2 -167 -24 -18 -42 -21 -134 -21 l-107 0 -3 94 c-1 52 0 101 3 109 9
23 208 11 243 -15z"/>
<path d="M2890 2380 l0 -270 35 0 35 0 0 125 0 125 44 0 43 0 94 -125 94 -124
43 -1 c23 0 42 2 42 5 0 3 -47 66 -105 140 -58 74 -105 139 -105 144 0 5 41
61 90 125 50 64 90 118 90 121 0 3 -19 5 -42 5 -43 -1 -43 -1 -123 -110 -80
-109 -80 -109 -122 -110 l-43 0 0 110 0 110 -35 0 -35 0 0 -270z"/>
<path d="M3420 2380 l0 -270 190 0 190 0 0 30 0 30 -155 0 -155 0 0 90 0 90
145 0 145 0 0 35 0 35 -145 0 -145 0 0 85 0 85 155 0 155 0 0 30 0 30 -190 0
-190 0 0 -270z"/>
<path d="M3870 2620 l0 -29 88 -3 87 -3 3 -237 2 -238 35 0 35 0 0 240 0 240
85 0 85 0 0 30 0 30 -210 0 -210 0 0 -30z"/>
<path d="M4380 2380 l0 -270 35 0 35 0 0 270 0 270 -35 0 -35 0 0 -270z"/>
<path d="M4580 2380 l0 -270 35 0 35 0 0 234 c0 141 4 237 10 241 13 8 16 1
134 -250 l103 -220 72 -3 71 -3 0 271 0 270 -35 0 -35 0 0 -240 c0 -191 -3
-240 -13 -240 -7 0 -63 105 -125 238 l-111 237 -71 3 -70 3 0 -271z"/>
<path d="M3598 1830 c-79 -14 -148 -77 -169 -153 -6 -23 -9 -88 -7 -147 3 -93
6 -110 31 -152 18 -31 44 -57 75 -75 42 -25 57 -28 137 -28 106 0 133 6 173
40 l30 25 11 -31 c7 -21 16 -30 28 -27 16 3 18 18 21 141 l3 137 -126 0 -125
0 0 -35 0 -35 89 0 90 0 -9 -31 c-25 -85 -92 -125 -198 -116 -70 5 -103 23
-139 75 -41 61 -38 222 5 282 28 39 98 70 157 70 66 0 133 -34 154 -77 14 -28
21 -33 54 -33 l37 0 -15 38 c-9 20 -24 48 -34 62 -42 57 -166 89 -273 70z"/>
<path d="M1080 1550 l0 -270 35 0 35 0 0 241 c0 222 1 240 17 237 17 -3 23
-24 129 -416 l16 -63 61 3 61 3 63 234 c35 129 66 237 68 239 2 3 11 2 20 -1
13 -6 15 -39 15 -242 l0 -235 30 0 30 0 0 270 0 270 -75 0 -74 0 -15 -52 c-9
-29 -37 -134 -64 -232 -27 -99 -53 -181 -59 -183 -6 -2 -39 102 -73 232 l-63
235 -79 0 -78 0 0 -270z"/>
<path d="M1931 1798 c-5 -13 -46 -129 -91 -258 -46 -129 -85 -241 -88 -248 -3
-10 5 -13 33 -10 35 3 39 7 52 43 7 22 20 59 29 83 l16 43 121 -3 122 -3 29
-82 c28 -82 29 -83 62 -83 19 0 34 3 34 7 0 4 -41 126 -92 270 l-92 263 -63 0
c-57 0 -64 -2 -72 -22z m126 -158 l42 -120 -95 0 c-52 0 -94 4 -94 9 0 5 16
53 35 107 20 55 38 105 40 112 12 34 33 2 72 -108z"/>
<path d="M2340 1549 l0 -270 33 3 32 3 3 238 c2 171 6 237 14 235 6 -2 59
-107 119 -232 59 -126 112 -233 117 -238 5 -5 36 -8 68 -6 l59 3 3 268 2 267
-35 0 -35 0 0 -235 c0 -184 -3 -235 -13 -235 -7 0 -62 106 -122 235 l-110 235
-67 0 -68 0 0 -271z"/>
<path d="M3047 1778 c-46 -121 -167 -474 -167 -486 0 -9 10 -12 33 -10 31 3
33 7 61 86 l28 82 122 0 122 0 30 -82 c28 -79 31 -83 62 -86 22 -2 32 1 32 10
0 8 -40 128 -90 267 -49 140 -90 256 -90 258 0 1 -29 3 -64 3 l-63 0 -16 -42z
m128 -125 c21 -60 40 -114 42 -120 4 -10 -18 -13 -92 -13 -74 0 -96 3 -92 13
2 6 21 60 42 120 21 59 43 107 50 107 7 0 29 -48 50 -107z"/>
<path d="M4050 1550 l0 -270 185 0 185 0 0 35 0 35 -155 0 -155 0 0 85 0 85
145 0 145 0 0 35 0 35 -145 0 -146 0 3 83 3 82 153 3 152 3 0 29 0 30 -185 0
-185 0 0 -270z"/>
<path d="M4522 1553 l3 -268 33 -3 32 -3 0 240 c0 225 1 241 18 241 15 0 28
-37 76 -217 78 -290 64 -263 134 -263 l58 0 64 240 c53 200 67 240 82 240 17
0 18 -16 18 -241 l0 -240 33 3 32 3 3 268 2 267 -79 0 -80 0 -9 -32 c-5 -18
-33 -124 -63 -235 -29 -112 -58 -203 -64 -203 -5 0 -34 91 -64 203 -30 111
-58 217 -63 235 l-9 32 -80 0 -79 0 2 -267z"/>
<path d="M5240 1550 l0 -270 185 0 185 0 0 35 0 35 -150 0 -150 0 0 85 0 84
143 3 142 3 3 33 3 32 -145 0 -146 0 0 85 0 85 150 0 150 0 0 30 0 30 -185 0
-185 0 0 -270z"/>
<path d="M5720 1549 l0 -270 33 3 32 3 3 238 c2 171 6 237 14 235 6 -2 59
-107 119 -232 59 -126 112 -233 117 -238 5 -5 36 -8 68 -6 l59 3 3 268 2 267
-35 0 -35 0 0 -235 c0 -187 -3 -235 -13 -235 -7 0 -61 103 -123 235 l-109 235
-67 0 -68 0 0 -271z"/>
<path d="M6250 1790 l0 -30 90 0 90 0 0 -241 0 -240 33 3 32 3 3 238 2 237 85
0 85 0 0 30 0 30 -210 0 -210 0 0 -30z"/>
</g>
</svg>
